<mxfile host="app.diagrams.net" modified="2024-04-10T07:20:59.159Z" agent="Mozilla/5.0 (Windows NT 10.0; Win64; x64) AppleWebKit/537.36 (KHTML, like Gecko) Chrome/122.0.0.0 Safari/537.36 OPR/108.0.0.0" etag="z2M8Glo3UL930XjYuSzF" version="24.2.1" type="github">
  <diagram name="Page-1" id="8W2glJkeStnLo5OgLJPn">
    <mxGraphModel dx="2263" dy="1223" grid="1" gridSize="10" guides="1" tooltips="1" connect="1" arrows="1" fold="1" page="1" pageScale="1" pageWidth="827" pageHeight="1169" math="0" shadow="0">
      <root>
        <mxCell id="0" />
        <mxCell id="1" parent="0" />
        <mxCell id="mDXTPYa2_8iE_sngVwxN-43" value="Data Center 3 - Standby" style="whiteSpace=wrap;strokeWidth=2;verticalAlign=top;" vertex="1" parent="1">
          <mxGeometry x="20" y="340" width="560" height="518" as="geometry" />
        </mxCell>
        <mxCell id="mDXTPYa2_8iE_sngVwxN-44" value="Tertio Application - Secondary Node 2" style="whiteSpace=wrap;strokeWidth=2;" vertex="1" parent="1">
          <mxGeometry x="55" y="381" width="286" height="34" as="geometry" />
        </mxCell>
        <mxCell id="mDXTPYa2_8iE_sngVwxN-45" value="Data Guard - Hot Standby DB" style="whiteSpace=wrap;strokeWidth=2;" vertex="1" parent="1">
          <mxGeometry x="87" y="497" width="222" height="34" as="geometry" />
        </mxCell>
        <mxCell id="mDXTPYa2_8iE_sngVwxN-46" value="Disk Storage 3" style="whiteSpace=wrap;strokeWidth=2;" vertex="1" parent="1">
          <mxGeometry x="279" y="799" width="116" height="34" as="geometry" />
        </mxCell>
        <mxCell id="mDXTPYa2_8iE_sngVwxN-47" value="Database 3" style="shape=cylinder3;boundedLbl=1;backgroundOutline=1;size=10;strokeWidth=2;whiteSpace=wrap;" vertex="1" parent="1">
          <mxGeometry x="151" y="640" width="94" height="66" as="geometry" />
        </mxCell>
        <mxCell id="mDXTPYa2_8iE_sngVwxN-48" value="Data Center 2 - Standby" style="whiteSpace=wrap;strokeWidth=2;verticalAlign=top;" vertex="1" parent="1">
          <mxGeometry x="1093" y="212" width="391" height="518" as="geometry" />
        </mxCell>
        <mxCell id="mDXTPYa2_8iE_sngVwxN-49" value="Tertio Application - Secondary Node 1" style="whiteSpace=wrap;strokeWidth=2;" vertex="1" parent="1">
          <mxGeometry x="1128" y="237" width="286" height="34" as="geometry" />
        </mxCell>
        <mxCell id="mDXTPYa2_8iE_sngVwxN-50" value="Data Guard - Hot Standby DB" style="whiteSpace=wrap;strokeWidth=2;" vertex="1" parent="1">
          <mxGeometry x="1160" y="381" width="222" height="34" as="geometry" />
        </mxCell>
        <mxCell id="mDXTPYa2_8iE_sngVwxN-51" value="Disk Storage 2" style="whiteSpace=wrap;strokeWidth=2;" vertex="1" parent="1">
          <mxGeometry x="1296" y="656" width="116" height="34" as="geometry" />
        </mxCell>
        <mxCell id="mDXTPYa2_8iE_sngVwxN-52" value="Database 2" style="shape=cylinder3;boundedLbl=1;backgroundOutline=1;size=10;strokeWidth=2;whiteSpace=wrap;" vertex="1" parent="1">
          <mxGeometry x="1224" y="480" width="94" height="66" as="geometry" />
        </mxCell>
        <mxCell id="mDXTPYa2_8iE_sngVwxN-53" value="Data Center 1 - Primary" style="whiteSpace=wrap;strokeWidth=2;verticalAlign=top;" vertex="1" parent="1">
          <mxGeometry x="600" y="104" width="474" height="468" as="geometry" />
        </mxCell>
        <mxCell id="mDXTPYa2_8iE_sngVwxN-54" value="Tertio Application - Primary Node" style="whiteSpace=wrap;strokeWidth=2;" vertex="1" parent="1">
          <mxGeometry x="740" y="129" width="254" height="34" as="geometry" />
        </mxCell>
        <mxCell id="mDXTPYa2_8iE_sngVwxN-55" value="Oracle RAC - Active DB" style="whiteSpace=wrap;strokeWidth=2;" vertex="1" parent="1">
          <mxGeometry x="778" y="237" width="178" height="34" as="geometry" />
        </mxCell>
        <mxCell id="mDXTPYa2_8iE_sngVwxN-56" value="Disk Storage 1" style="whiteSpace=wrap;strokeWidth=2;" vertex="1" parent="1">
          <mxGeometry x="809" y="497" width="116" height="34" as="geometry" />
        </mxCell>
        <mxCell id="mDXTPYa2_8iE_sngVwxN-57" value="Database 1" style="shape=cylinder3;boundedLbl=1;backgroundOutline=1;size=10;strokeWidth=2;whiteSpace=wrap;" vertex="1" parent="1">
          <mxGeometry x="820" y="365" width="94" height="66" as="geometry" />
        </mxCell>
        <mxCell id="mDXTPYa2_8iE_sngVwxN-58" value="Load Balancer / Failover Manager" style="whiteSpace=wrap;strokeWidth=2;" vertex="1" parent="1">
          <mxGeometry x="739" y="20" width="257" height="34" as="geometry" />
        </mxCell>
        <mxCell id="mDXTPYa2_8iE_sngVwxN-59" value="" style="curved=1;startArrow=none;endArrow=block;exitX=0.501230405071589;exitY=0.9803922316607308;entryX=0.5017557465628292;entryY=0.009803996366613051;rounded=0;" edge="1" parent="1" source="mDXTPYa2_8iE_sngVwxN-54" target="mDXTPYa2_8iE_sngVwxN-55">
          <mxGeometry relative="1" as="geometry">
            <Array as="points" />
          </mxGeometry>
        </mxCell>
        <mxCell id="mDXTPYa2_8iE_sngVwxN-60" value="" style="curved=1;startArrow=none;endArrow=block;exitX=0.5017557465628292;exitY=1.0000001121969784;entryX=0.5033247115764212;entryY=-0.005050427985913826;rounded=0;" edge="1" parent="1" source="mDXTPYa2_8iE_sngVwxN-55" target="mDXTPYa2_8iE_sngVwxN-57">
          <mxGeometry relative="1" as="geometry">
            <Array as="points" />
          </mxGeometry>
        </mxCell>
        <mxCell id="mDXTPYa2_8iE_sngVwxN-61" value="" style="curved=1;startArrow=none;endArrow=block;exitX=0.5033247115764212;exitY=0.9918277624881628;entryX=0.5026941628291689;entryY=-0.013991804683909696;rounded=0;" edge="1" parent="1" source="mDXTPYa2_8iE_sngVwxN-57" target="mDXTPYa2_8iE_sngVwxN-56">
          <mxGeometry relative="1" as="geometry">
            <Array as="points" />
          </mxGeometry>
        </mxCell>
        <mxCell id="mDXTPYa2_8iE_sngVwxN-62" value="" style="curved=1;startArrow=none;endArrow=block;exitX=0.49981804160805016;exitY=1.0000001121969784;entryX=0.49976558513469527;entryY=-0.007931821486529182;rounded=0;" edge="1" parent="1" source="mDXTPYa2_8iE_sngVwxN-49" target="mDXTPYa2_8iE_sngVwxN-50">
          <mxGeometry relative="1" as="geometry">
            <Array as="points" />
          </mxGeometry>
        </mxCell>
        <mxCell id="mDXTPYa2_8iE_sngVwxN-63" value="" style="curved=1;startArrow=none;endArrow=block;exitX=0.49976558513469527;exitY=0.9822642943438362;entryX=0.4994463819138547;entryY=0.00697927763967803;rounded=0;" edge="1" parent="1" source="mDXTPYa2_8iE_sngVwxN-50" target="mDXTPYa2_8iE_sngVwxN-52">
          <mxGeometry relative="1" as="geometry">
            <Array as="points" />
          </mxGeometry>
        </mxCell>
        <mxCell id="mDXTPYa2_8iE_sngVwxN-64" value="" style="curved=1;startArrow=none;endArrow=block;exitX=0.4994463819138547;exitY=1.0038574681137546;entryX=0.31947237321973937;entryY=-0.0004439073450425092;rounded=0;" edge="1" parent="1" source="mDXTPYa2_8iE_sngVwxN-52" target="mDXTPYa2_8iE_sngVwxN-51">
          <mxGeometry relative="1" as="geometry">
            <Array as="points">
              <mxPoint x="1271" y="606" />
            </Array>
          </mxGeometry>
        </mxCell>
        <mxCell id="mDXTPYa2_8iE_sngVwxN-65" value="" style="curved=1;startArrow=none;endArrow=block;exitX=0.49919875351699083;exitY=0.9822642943438362;entryX=0.49896776353990707;entryY=-0.013991804683909696;rounded=0;" edge="1" parent="1" source="mDXTPYa2_8iE_sngVwxN-44" target="mDXTPYa2_8iE_sngVwxN-45">
          <mxGeometry relative="1" as="geometry">
            <Array as="points" />
          </mxGeometry>
        </mxCell>
        <mxCell id="mDXTPYa2_8iE_sngVwxN-66" value="" style="curved=1;startArrow=none;endArrow=block;exitX=0.49896776353990707;exitY=0.9762043111464557;entryX=0.4975621649559508;entryY=-0.0011930176706025095;rounded=0;" edge="1" parent="1" source="mDXTPYa2_8iE_sngVwxN-45" target="mDXTPYa2_8iE_sngVwxN-47">
          <mxGeometry relative="1" as="geometry">
            <Array as="points" />
          </mxGeometry>
        </mxCell>
        <mxCell id="mDXTPYa2_8iE_sngVwxN-67" value="" style="curved=1;startArrow=none;endArrow=block;exitX=0.4975621649559508;exitY=0.9956851728034742;entryX=0.10369802568013388;entryY=0.01123203950769761;rounded=0;" edge="1" parent="1" source="mDXTPYa2_8iE_sngVwxN-47" target="mDXTPYa2_8iE_sngVwxN-46">
          <mxGeometry relative="1" as="geometry">
            <Array as="points">
              <mxPoint x="198" y="765" />
            </Array>
          </mxGeometry>
        </mxCell>
        <mxCell id="mDXTPYa2_8iE_sngVwxN-68" value="Data Guard Replication" style="curved=1;startArrow=block;endArrow=block;exitX=0.6920013657543849;exitY=1.0000001121969784;entryX=0.10594427205016682;entryY=-0.007931821486529182;rounded=0;" edge="1" parent="1" source="mDXTPYa2_8iE_sngVwxN-55" target="mDXTPYa2_8iE_sngVwxN-50">
          <mxGeometry relative="1" as="geometry">
            <Array as="points">
              <mxPoint x="970" y="305" />
              <mxPoint x="970" y="340" />
            </Array>
          </mxGeometry>
        </mxCell>
        <mxCell id="mDXTPYa2_8iE_sngVwxN-69" value="Data Guard Replication" style="curved=1;startArrow=block;endArrow=block;exitX=0.19718755952618558;exitY=1.0000001121969784;entryX=0.9994604437200872;entryY=0.10626542726416902;rounded=0;" edge="1" parent="1" source="mDXTPYa2_8iE_sngVwxN-55" target="mDXTPYa2_8iE_sngVwxN-45">
          <mxGeometry relative="1" as="geometry">
            <Array as="points">
              <mxPoint x="703" y="305" />
              <mxPoint x="703" y="455" />
            </Array>
          </mxGeometry>
        </mxCell>
        <mxCell id="mDXTPYa2_8iE_sngVwxN-70" value="Synchronous Replication" style="curved=1;startArrow=block;endArrow=block;exitX=0.735622812046821;exitY=0.9762043111464557;entryX=0.5496872152179709;entryY=-0.0004439073450425092;rounded=0;" edge="1" parent="1" source="mDXTPYa2_8iE_sngVwxN-56" target="mDXTPYa2_8iE_sngVwxN-51">
          <mxGeometry relative="1" as="geometry">
            <Array as="points">
              <mxPoint x="960" y="571" />
              <mxPoint x="1378" y="606" />
            </Array>
          </mxGeometry>
        </mxCell>
        <mxCell id="mDXTPYa2_8iE_sngVwxN-71" value="Synchronous Replication" style="curved=1;startArrow=block;endArrow=block;exitX=0.21731316312296706;exitY=0.9762043111464557;entryX=0.5816142458198954;entryY=0.01123203950769761;rounded=0;" edge="1" parent="1" source="mDXTPYa2_8iE_sngVwxN-56" target="mDXTPYa2_8iE_sngVwxN-46">
          <mxGeometry relative="1" as="geometry">
            <Array as="points">
              <mxPoint x="753" y="571" />
              <mxPoint x="366" y="606" />
              <mxPoint x="366" y="765" />
            </Array>
          </mxGeometry>
        </mxCell>
        <mxCell id="mDXTPYa2_8iE_sngVwxN-72" value="Synchronous Replication" style="curved=1;startArrow=block;endArrow=block;exitX=0.49831663329025794;exitY=0.9897522084853229;entryX=0.8841044566801256;entryY=0.01123203950769761;rounded=0;" edge="1" parent="1" source="mDXTPYa2_8iE_sngVwxN-51" target="mDXTPYa2_8iE_sngVwxN-46">
          <mxGeometry relative="1" as="geometry">
            <Array as="points">
              <mxPoint x="1354" y="731" />
              <mxPoint x="473" y="765" />
            </Array>
          </mxGeometry>
        </mxCell>
        <mxCell id="mDXTPYa2_8iE_sngVwxN-73" value="" style="curved=1;dashed=1;dashPattern=2 3;startArrow=none;endArrow=block;exitX=0.4992705170746443;exitY=0.9901961158303654;entryX=0.501230405071589;entryY=-0.00980388416963465;rounded=0;" edge="1" parent="1" source="mDXTPYa2_8iE_sngVwxN-58" target="mDXTPYa2_8iE_sngVwxN-54">
          <mxGeometry relative="1" as="geometry">
            <Array as="points" />
          </mxGeometry>
        </mxCell>
        <mxCell id="mDXTPYa2_8iE_sngVwxN-74" value="" style="curved=1;dashed=1;dashPattern=2 3;startArrow=none;endArrow=block;exitX=0.9986067894367856;exitY=0.8862815424193843;entryX=0.49981804160805016;entryY=0.009803996366613051;rounded=0;" edge="1" parent="1" source="mDXTPYa2_8iE_sngVwxN-58" target="mDXTPYa2_8iE_sngVwxN-49">
          <mxGeometry relative="1" as="geometry">
            <Array as="points">
              <mxPoint x="1271" y="79" />
            </Array>
          </mxGeometry>
        </mxCell>
        <mxCell id="mDXTPYa2_8iE_sngVwxN-75" value="" style="curved=1;dashed=1;dashPattern=2 3;startArrow=none;endArrow=block;exitX=-0.00006575528749696011;exitY=0.730924327708102;entryX=0.49919875351699083;entryY=-0.007931821486529182;rounded=0;" edge="1" parent="1" source="mDXTPYa2_8iE_sngVwxN-58" target="mDXTPYa2_8iE_sngVwxN-44">
          <mxGeometry relative="1" as="geometry">
            <Array as="points">
              <mxPoint x="198" y="79" />
            </Array>
          </mxGeometry>
        </mxCell>
      </root>
    </mxGraphModel>
  </diagram>
</mxfile>
